<svg id="Layer_1" data-name="Layer 1" xmlns="http://www.w3.org/2000/svg" xmlns:xlink="http://www.w3.org/1999/xlink" viewBox="0 0 351.24 351.24"><defs><style>.cls-1{fill:none;}.cls-2{clip-path:url(#clip-path);}.cls-3{fill:#64ff8c;}.cls-4{fill:#4af48f;}.cls-5{fill:#25a574;}</style><clipPath id="clip-path" transform="translate(-80.38 -80.38)"><rect class="cls-1" width="512" height="512"/></clipPath></defs><title>Add</title><g class="cls-2"><path class="cls-3" d="M223.07,426.13a5.48,5.48,0,0,1-5.49-5.48V294.42H91.35a5.48,5.48,0,0,1-5.48-5.49V223.07a5.48,5.48,0,0,1,5.48-5.49H217.58V91.35a5.48,5.48,0,0,1,5.49-5.48h65.86a5.48,5.48,0,0,1,5.49,5.48V217.58H420.65a5.48,5.48,0,0,1,5.48,5.49v65.86a5.48,5.48,0,0,1-5.48,5.49H294.42V420.65a5.48,5.48,0,0,1-5.49,5.48Z" transform="translate(-80.38 -80.38)"/></g><g class="cls-2"><polygon class="cls-4" points="329.29 208.55 197.58 208.55 197.58 340.27 131.72 340.27 131.72 208.55 0 208.55 0 142.69 131.72 142.69 131.72 10.98 197.58 10.98 197.58 142.69 329.29 142.69 329.29 208.55"/></g><g class="cls-2"><path class="cls-5" d="M288.93,80.38H223.07a11,11,0,0,0-11,11V212.1H91.35a11,11,0,0,0-11,11v65.86a11,11,0,0,0,11,11H212.09V420.65a11,11,0,0,0,11,11h65.86a11,11,0,0,0,11-11V299.91H420.64a11,11,0,0,0,11-11V223.07a11,11,0,0,0-11-11H299.9V91.35A11,11,0,0,0,288.93,80.38Zm0,11V223.07H420.65v65.86H288.93V420.65H223.07V288.93H91.35V223.07H223.07V91.35h65.86" transform="translate(-80.38 -80.38)"/></g></svg>