<svg id="Layer_1" data-name="Layer 1" xmlns="http://www.w3.org/2000/svg" xmlns:xlink="http://www.w3.org/1999/xlink" viewBox="0 0 427.4 349"><defs><style>.cls-1{fill:none;}.cls-2{clip-path:url(#clip-path);}.cls-3{fill:#936946;}.cls-4{fill:#fbfeff;}.cls-5{fill:#c89462;}.cls-6{fill:#fff;}</style><clipPath id="clip-path" transform="translate(-42.3 -81.5)"><rect class="cls-1" width="512" height="512"/></clipPath></defs><title>BriefCase</title><g class="cls-2"><path class="cls-3" d="M314.6,88.9,215,87.5a51.38,51.38,0,0,0-51.4,51.4v26.4h19.6V150.2a31.28,31.28,0,0,1,31.3-31.3h83.1a31.28,31.28,0,0,1,31.3,31.3v15.4l37.2.1V140.3A51.53,51.53,0,0,0,314.6,88.9Z" transform="translate(-42.3 -81.5)"/></g><g class="cls-2"><path d="M334.9,166.3H360V138.9a45.49,45.49,0,0,0-45.4-45.4H197.4A45.49,45.49,0,0,0,152,138.9v27.4h25.2V150.2a37.3,37.3,0,0,1,37.3-37.3h83.1a37.3,37.3,0,0,1,37.3,37.3Zm31.1,12H328.9a6,6,0,0,1-6-6V150.2a25.27,25.27,0,0,0-25.3-25.3H214.5a25.27,25.27,0,0,0-25.3,25.3v22.1a6,6,0,0,1-6,6H146a6,6,0,0,1-6-6V138.9a57.4,57.4,0,0,1,57.4-57.4H314.6A57.4,57.4,0,0,1,372,138.9v33.4A6,6,0,0,1,366,178.3Z" transform="translate(-42.3 -81.5)"/></g><g class="cls-2"><path class="cls-3" d="M447.8,424.5H422.4V165.3h25.4a15.88,15.88,0,0,1,15.9,15.9V408.6A15.88,15.88,0,0,1,447.8,424.5Z" transform="translate(-42.3 -81.5)"/></g><g class="cls-2"><path class="cls-4" d="M87,424.5H64.2a15.88,15.88,0,0,1-15.9-15.9V181.2a15.88,15.88,0,0,1,15.9-15.9H87Z" transform="translate(-42.3 -81.5)"/></g><g class="cls-2"><rect class="cls-5" x="23.6" y="83.8" width="375.9" height="259.2" rx="15.9"/></g><g class="cls-2"><path d="M290.2,279.7a5.82,5.82,0,0,1-4.9-2.6,5.94,5.94,0,0,1,1.5-8.3L444.4,160.4a6,6,0,1,1,6.8,9.8L293.6,278.6A5.33,5.33,0,0,1,290.2,279.7Z" transform="translate(-42.3 -81.5)"/></g><g class="cls-2"><path d="M221.8,280.1a5.33,5.33,0,0,1-3.4-1.1L60.8,170.5a6,6,0,0,1,6.8-9.8L225.2,269.2a6,6,0,0,1,1.5,8.3A5.82,5.82,0,0,1,221.8,280.1Z" transform="translate(-42.3 -81.5)"/></g><g class="cls-2"><path d="M64.2,171.3a9.86,9.86,0,0,0-9.9,9.9V408.6a9.86,9.86,0,0,0,9.9,9.9H447.8a9.86,9.86,0,0,0,9.9-9.9V181.2a9.86,9.86,0,0,0-9.9-9.9ZM447.8,430.5H64.2a21.89,21.89,0,0,1-21.9-21.9V181.2a21.89,21.89,0,0,1,21.9-21.9H447.8a21.89,21.89,0,0,1,21.9,21.9V408.6A21.89,21.89,0,0,1,447.8,430.5Z" transform="translate(-42.3 -81.5)"/></g><g class="cls-2"><path class="cls-5" d="M271,329.9H241a17.63,17.63,0,0,1-17.6-17.6v-51A17.63,17.63,0,0,1,241,243.7h30a17.63,17.63,0,0,1,17.6,17.6v51A17.5,17.5,0,0,1,271,329.9Z" transform="translate(-42.3 -81.5)"/></g><g class="cls-2"><path class="cls-4" d="M255.2,329.9H241a17.63,17.63,0,0,1-17.6-17.6v-51A17.63,17.63,0,0,1,241,243.7h14.2a.79.79,0,0,1,.8.8v84.6A.86.86,0,0,1,255.2,329.9Z" transform="translate(-42.3 -81.5)"/></g><g class="cls-2"><path class="cls-3" d="M253.8,329.9h0A12.93,12.93,0,0,1,240.9,317V256.6a12.9,12.9,0,1,1,25.8,0V317A12.93,12.93,0,0,1,253.8,329.9Z" transform="translate(-42.3 -81.5)"/></g><g class="cls-2"><path d="M241,249.7a11.61,11.61,0,0,0-11.6,11.6v51A11.61,11.61,0,0,0,241,323.9h30a11.56,11.56,0,0,0,8.3-3.4,11.17,11.17,0,0,0,3.3-8.1V261.3A11.61,11.61,0,0,0,271,249.7Zm30,86.2H241a23.64,23.64,0,0,1-23.6-23.6v-51A23.64,23.64,0,0,1,241,237.7h30a23.64,23.64,0,0,1,23.6,23.6v51a22.8,22.8,0,0,1-6.8,16.6A23.35,23.35,0,0,1,271,335.9Z" transform="translate(-42.3 -81.5)"/></g><g class="cls-2"><path class="cls-6" d="M78.7,400.2a3.54,3.54,0,0,1-3.5-3.5V363.9a3.5,3.5,0,0,1,7,0v32.8A3.54,3.54,0,0,1,78.7,400.2Z" transform="translate(-42.3 -81.5)"/></g></svg>