<svg id="Layer_1" data-name="Layer 1" xmlns="http://www.w3.org/2000/svg" xmlns:xlink="http://www.w3.org/1999/xlink" viewBox="0 0 348.41 402.38"><defs><style>.cls-1{fill:none;}.cls-2{clip-path:url(#clip-path);}.cls-3{fill:#d36b24;}.cls-4{fill:#a0490e;}.cls-5{fill:#aa1f4d;}.cls-6{fill:#bc2a54;}.cls-7{fill:#fff;}.cls-8{fill:#d9f1ff;}.cls-9{fill:#0cafaf;}.cls-10{fill:#093260;}</style><clipPath id="clip-path" transform="translate(-38.89 -69.65)"><rect class="cls-1" width="512" height="512"/></clipPath></defs><title>Home</title><g class="cls-2"><polygon class="cls-3" points="174.2 158 36.08 163.68 36.08 397.26 312.32 397.26 312.32 237.79 174.2 158"/></g><g class="cls-2"><path class="cls-4" d="M87.18,232.82l-12.2,7V358.48a18.37,18.37,0,0,0,36.73,0V288.34a18.35,18.35,0,1,1,36.7,0V318.4a18.37,18.37,0,1,0,36.73,0V272.83l28-16.13,138.12,79.77v-29L213.09,227.66Z" transform="translate(-38.89 -69.65)"/></g><g class="cls-2"><path class="cls-5" d="M213.09,324.81a56.7,56.7,0,0,0-56.7,56.66v85.45H269.73V381.47A56.63,56.63,0,0,0,213.09,324.81Z" transform="translate(-38.89 -69.65)"/></g><g class="cls-2"><path class="cls-6" d="M213.08,347.29a38,38,0,0,0-38,38v81.66H251V385.26A38,38,0,0,0,213.08,347.29Z" transform="translate(-38.89 -69.65)"/></g><g class="cls-2"><polygon class="cls-3" points="312.32 140.7 312.32 57.06 230.84 57.06 230.84 93.67 312.32 140.7"/></g><g class="cls-2"><rect class="cls-7" x="207.67" y="5.12" width="127.83" height="51.94"/></g><g class="cls-2"><rect class="cls-4" x="230.84" y="57.06" width="81.49" height="33.88"/></g><g class="cls-2"><rect class="cls-8" x="207.67" y="31.1" width="127.83" height="25.98"/></g><g class="cls-2"><path class="cls-9" d="M231.92,395.86h0Z" transform="translate(-38.89 -69.65)"/></g><g class="cls-2"><path class="cls-7" d="M213.09,130.6,44,228.22v96.59L75,307v22a18.37,18.37,0,0,0,36.73,0V258.81a18.35,18.35,0,1,1,36.7,0v30.05a18.37,18.37,0,1,0,36.73,0V243.32l28-16.15,169.09,97.64V228.22Z" transform="translate(-38.89 -69.65)"/></g><g class="cls-2"><path class="cls-8" d="M44,263v61.86L75,307v22a18.37,18.37,0,0,0,36.73,0V258.82a18.35,18.35,0,1,1,36.7,0v30.05a18.37,18.37,0,1,0,36.73,0V243.32l28-16.15,169.09,97.64V263L213.09,165.34Z" transform="translate(-38.89 -69.65)"/></g><g class="cls-2"><path class="cls-10" d="M351.21,472H75a5.12,5.12,0,0,1-5.12-5.12V307.44a5.12,5.12,0,0,1,10.24,0V461.8h266V310.39l-135.56-78.3a5.12,5.12,0,1,1,5.12-8.86L353.77,303a5.09,5.09,0,0,1,2.56,4.43V466.92A5.12,5.12,0,0,1,351.21,472Z" transform="translate(-38.89 -69.65)"/></g><g class="cls-2"><path class="cls-10" d="M161.51,461.8h103.1V381.47a51.55,51.55,0,0,0-103.1,0V461.8ZM269.73,472H156.39a5.13,5.13,0,0,1-5.12-5.12V381.47a61.79,61.79,0,0,1,123.58,0v85.45A5.12,5.12,0,0,1,269.73,472Z" transform="translate(-38.89 -69.65)"/></g><g class="cls-2"><path class="cls-10" d="M274.85,160.37,346.1,201.5V131.84H274.85Zm76.36,55.11a5.2,5.2,0,0,1-2.56-.69l-81.49-47a5.12,5.12,0,0,1-2.56-4.43V126.72a5.12,5.12,0,0,1,5.12-5.12h81.49a5.12,5.12,0,0,1,5.12,5.12v83.64a5.13,5.13,0,0,1-5.12,5.12Z" transform="translate(-38.89 -69.65)"/></g><g class="cls-2"><path class="cls-10" d="M251.68,121.6H369.27V79.89H251.68Zm122.71,10.24H246.56a5.12,5.12,0,0,1-5.12-5.12V74.77a5.12,5.12,0,0,1,5.12-5.12H374.39a5.13,5.13,0,0,1,5.12,5.12v52A5.12,5.12,0,0,1,374.39,131.84Z" transform="translate(-38.89 -69.65)"/></g><g class="cls-2"><path class="cls-10" d="M231.92,401H227.8a5.12,5.12,0,0,1,0-10.24h4.12a5.12,5.12,0,0,1,0,10.24Z" transform="translate(-38.89 -69.65)"/></g><g class="cls-2"><path class="cls-10" d="M75,301.83a5,5,0,0,1,2.56.69A5.12,5.12,0,0,1,80.09,307v22a13.25,13.25,0,0,0,26.49,0V258.81a23.47,23.47,0,1,1,46.94,0v30.05a13.25,13.25,0,1,0,26.49,0V243.32a5.1,5.1,0,0,1,2.56-4.43l28-16.15a5.14,5.14,0,0,1,5.12,0l161.41,93.2V231.17l-164-94.66-164,94.66v84.77l23.28-13.43A5.11,5.11,0,0,1,75,301.83Zm18.35,50.58a23.49,23.49,0,0,1-23.47-23.47V315.81L46.57,329.24a5.12,5.12,0,0,1-7.68-4.43V228.22a5.13,5.13,0,0,1,2.56-4.44l169.08-97.62a5.14,5.14,0,0,1,5.12,0l169.09,97.62a5.12,5.12,0,0,1,2.56,4.43v96.6a5.12,5.12,0,0,1-7.68,4.43L213.09,233.09l-22.83,13.19v42.59a23.49,23.49,0,1,1-47,0V258.82a13.23,13.23,0,1,0-26.46,0V329A23.52,23.52,0,0,1,93.32,352.41Z" transform="translate(-38.89 -69.65)"/></g><g class="cls-2"><path class="cls-10" d="M304.44,285.55H185.14a5.12,5.12,0,1,1,0-10.24h119.3a5.12,5.12,0,0,1,0,10.24Z" transform="translate(-38.89 -69.65)"/></g><g class="cls-2"><path class="cls-10" d="M148.4,285.55H112.63a5.12,5.12,0,1,1,0-10.24H148.4a5.12,5.12,0,1,1,0,10.24Z" transform="translate(-38.89 -69.65)"/></g><g class="cls-2"><path class="cls-10" d="M168,352.41H80.88a5.12,5.12,0,1,1,0-10.24H168a5.12,5.12,0,1,1,0,10.24Z" transform="translate(-38.89 -69.65)"/></g><g class="cls-2"><path class="cls-10" d="M348,352.41H260.92a5.12,5.12,0,0,1,0-10.24H348a5.12,5.12,0,0,1,0,10.24Z" transform="translate(-38.89 -69.65)"/></g><g class="cls-2"><path class="cls-10" d="M348,420.3H269.73a5.12,5.12,0,0,1,0-10.24H348a5.12,5.12,0,0,1,0,10.24Z" transform="translate(-38.89 -69.65)"/></g><g class="cls-2"><path class="cls-10" d="M153.19,420.3H75a5.12,5.12,0,1,1,0-10.24h78.22a5.12,5.12,0,0,1,0,10.24Z" transform="translate(-38.89 -69.65)"/></g></svg>