<svg id="Layer_1" data-name="Layer 1" xmlns="http://www.w3.org/2000/svg" viewBox="0 0 148.01 198.94"><defs><style>.cls-1{fill:#010000;}.cls-2{fill:#373b3c;}.cls-2,.cls-3,.cls-4,.cls-5,.cls-6,.cls-7{fill-rule:evenodd;}.cls-3{fill:#b10006;}.cls-4{fill:#820820;}.cls-5{fill:#4a646e;}.cls-6{fill:#98c7dc;}.cls-7{fill:#fbfdfc;}</style></defs><title>Red</title><g id="_7rZVjN" data-name=" 7rZVjN"><path class="cls-1" d="M0,125V100A245.88,245.88,0,0,0,1,73.65c-.23-13,5-20.06,17.45-22a28.46,28.46,0,0,1,3.42-.72c7.38-.24,7.48,0,8.66-8.54a65.71,65.71,0,0,1,9.61-27.13C45.72,6.76,53.72.51,64.72.51,75.2.52,85.89-1,96.13,1.16c16.29,3.43,29.76,11.48,36.4,27.94a10,10,0,0,0,3,4.47A31.69,31.69,0,0,1,148,55V67a30.19,30.19,0,0,1-5.34,12.64c-2.49,3.41-1.81,7.85-.94,11.61,3.51,15,.81,29.71-1.49,44.47-1.33,8.64-3,17.27-4,26-.69,5.65-2,11.11-5.32,15.9-2.94,4.94-7.35,6.9-12.94,6.8-3.45-.06-7,0-10.45,0-10.08,0-12.64-1.72-16.5-11a32.92,32.92,0,0,1-2.49-13c0-2.08-.37-4.31-3.05-4.18s-2,2.6-2.07,4.25c-.16,4.59.31,9.22-1,13.74a23.26,23.26,0,0,1-20.57,19c-8.71,1-16.91-.93-24.62-4.68-4.1-2-6-6-6.55-10.57-.1-6.13-1.22-12.19-1.38-18.33-.09-3.51-1.79-5.72-5.63-5.23-12.22,1.56-21.19-8-22.66-20.66C.66,130.79,1,127.79,0,125Z" transform="translate(0 0)"/><path class="cls-2" d="M92.18,172.94c2.73,7.33,7.38,11.34,15.73,10.14a61.33,61.33,0,0,1,10.41-.08c5,.15,9-1.5,11.53-6.06,6.72,1.13,13.92,1.23,18.16,8v3c-1.27,3.25-4.07,4.59-7.07,5.67-10.07,3.6-20.58,4.3-31.13,4.84-1.93.09-4-.57-5.8.49H57c-6.53-1.07-13.15-.56-19.72-1.58s-13.16-2.05-19.25-4.9c-2.6-1.21-5.11-2.67-5.07-6.11s2.52-5,5.24-5.91c4.45-1.44,8.65-4.58,13.76-2.58.82,6.38,4.77,9.4,10.67,11.47,12,4.22,22.89,4,33.38-4.17,4-3.17,4-7.25,5-11.32C84.62,171.69,88.41,172.44,92.18,172.94Z" transform="translate(0 0)"/><path class="cls-3" d="M48.84,22.87C54.75,15.46,61.53,10,71.93,11.35a80.85,80.85,0,0,0,11.95.43c11.25-.13,20.79,3.67,28.52,11.87.85.91,2.53,1.79,1.92,3.14s-2.31,1.13-3.61,1.13c-8.8,0-17.62-.72-26.36,1-3.75.74-7.6,1.12-11.22,2.26-6,1.91-10.2,6.41-10.8,12.53C61.2,55.3,61.1,66.86,67.47,77.57c2.76,4.66,6.74,7.17,11.16,9.38,10.61,5.31,21.66,4,32.66,1.65A98.88,98.88,0,0,0,125.24,85c4.7-1.78,5.12.36,4.75,4-.35,6.93-.87,13.78-2.65,20.59-3.71,14.2-9.77,18.89-24.1,21.13-12.33,1.93-23.9-1.09-35.58-3.2-6.71-1.22-10.27-7.74-12.84-13.65-4.78-11-7.09-22.7-8.64-34.7C44.87,69,45.11,58.91,44.44,48.8,43.82,39.69,47.3,31.5,48.84,22.87Z" transform="translate(0 0)"/><path class="cls-4" d="M48.84,22.87A32,32,0,0,1,46.75,36.5,14.92,14.92,0,0,0,46,40.89a224.67,224.67,0,0,0,2.32,45.18c1.55,10.05,3.58,20.4,8.73,29.29,3.55,6.13,7.84,12.11,17.06,11.87,7-.18,13.81,3.75,21.08,2.64,5.69-.87,11.51-.32,17.11-2.45A19,19,0,0,0,124.12,115,103.8,103.8,0,0,0,129,92.16c.13-1.2-.08-2.37,1-3.2,2.74,21.74.53,43-5.47,64-1.16,4.08-.27,8.29-.36,12.43-.16,7-1.13,8.07-7.89,8.73-1.93.19-3.93.57-5.93.63-7.67.23-10.59-2.45-10.28-10.22.21-5.43.24-11.15,7.49-13.06,3-.8,5.54-3.32,8.73-6.64A119.57,119.57,0,0,1,100.35,146a88.76,88.76,0,0,1-17.28-1.73,15.61,15.61,0,0,0-7,0c-2.39.61-3.95,1.85-4.29,4.74a126.87,126.87,0,0,0-.9,18.38c.27,8.62-4.86,14-13.63,14.53-4.63.24-8.85-1.17-13-3-1.64-.72-2-1.93-2.16-3.54-4.15-32.4-4.37-64.94-4-97.54a172.2,172.2,0,0,1,5.44-41.66C44.73,31.56,47,27.28,48.84,22.87Z" transform="translate(0 0)"/><path class="cls-4" d="M27.89,74.83c.06,17,.08,33.91.23,50.91,0,3.47.63,6.94.81,10.41.34,6.6-3.24,8.89-9.41,6-4.78-2.24-7-5.5-7.9-11.35-2.73-18-.37-35.78.55-53.65,0-.44.45-.86.68-1.29,2.5.15,4.77-.77,7.12-1.39C22.62,73.75,25.34,73,27.89,74.83Z" transform="translate(0 0)"/><path class="cls-5" d="M138.08,55.92c1.7,6.42-1.28,13.29-8.37,16.73-12.16,5.9-25,9.2-38.6,6.07C84.36,77.17,79,73,74.66,68c-5.47-6.37-3.74-21.79,2.53-26.79,2.21,1.12,2.52,3.4,3.13,5.4,3.6,12.19,8.77,16.07,21.6,16,8.46,0,16.83-1.19,25.21-2.19C131.22,59.88,134.42,57.35,138.08,55.92Z" transform="translate(0 0)"/><path class="cls-6" d="M138.08,56c-2.46,4.49-7.09,5.48-11.4,6a211,211,0,0,1-27.28,1.9c-10.7-.12-17-4.79-19.88-15.12-.72-2.6-1.55-5.07-2.33-7.6,10-2.07,20-5.05,30.33-4.28,7.58.54,15,2.41,21.58,6.54C133.69,46.29,137.18,50.22,138.08,56Z" transform="translate(0 0)"/><path class="cls-3" d="M27.89,74.82a29.37,29.37,0,0,0-11.2,2c-1.3.46-3.23,1.91-3.83-1,.22-1.63.38-3.28.68-4.9,1.34-7.18,6.74-10.3,13.68-8.09,1.83.59,1.6,1.83,1.49,3.12C28.47,69,28.17,72,27.89,74.82Z" transform="translate(0 0)"/><path class="cls-7" d="M117.6,52.94c-4.93-.55-11.31-1.34-17.71-1.92-3.3-.31-4-2.49-4-5.17a5.2,5.2,0,0,1,4.77-5.41c7.69-1.24,15.08.76,22.42,2.7a7.46,7.46,0,0,1,4.09,2.73c1,1.34,2.15,2.75,1.36,4.52A4.1,4.1,0,0,1,124.17,53C122.53,52.84,120.85,53,117.6,52.94Z" transform="translate(0 0)"/></g></svg>