<svg id="Layer_1" data-name="Layer 1" xmlns="http://www.w3.org/2000/svg" viewBox="0 0 148 198.9"><defs><style>.cls-1{fill:#010000;}.cls-2{fill:#373b3c;}.cls-2,.cls-3,.cls-4,.cls-5,.cls-6,.cls-7{fill-rule:evenodd;}.cls-3{fill:#b10006;}.cls-4{fill:#820820;}.cls-5{fill:#4a646e;}.cls-6{fill:#98c7dc;}.cls-7{fill:#fbfdfc;}</style></defs><title>Us</title><g id="_7rZVjN" data-name=" 7rZVjN"><path class="cls-1" d="M147,133.7c-1.5,12.6-10.4,22.2-22.7,20.7-3.8-.5-5.5,1.7-5.6,5.2-.2,6.1-1.3,12.2-1.4,18.3-.5,4.6-2.4,8.6-6.6,10.6-7.7,3.8-15.9,5.7-24.6,4.7a23.35,23.35,0,0,1-20.6-19c-1.3-4.5-.8-9.1-1-13.7-.1-1.6.6-4.1-2.1-4.3s-3.1,2.1-3.1,4.2a32,32,0,0,1-2.5,13c-3.9,9.3-6.4,11-16.5,11-3.5,0-7-.1-10.4,0-5.6.1-10-1.9-12.9-6.8-3.3-4.8-4.6-10.3-5.3-15.9-1-8.7-2.7-17.4-4-26-2.3-14.8-5-29.5-1.5-44.5.9-3.8,1.5-8.2-.9-11.6A31,31,0,0,1,0,66.9v-12A31.93,31.93,0,0,1,12.5,33.5a10,10,0,0,0,3-4.5C22.1,12.6,35.6,4.6,51.9,1.2,62.1-1,72.8.5,83.3.5c11,0,19,6.3,24.6,14.8a65.81,65.81,0,0,1,9.6,27.1c1.2,8.6,1.3,8.3,8.7,8.5a34,34,0,0,1,3.4.7c12.4,1.9,17.7,9,17.4,22a255.83,255.83,0,0,0,1,26.3v25C147,127.8,147.3,130.8,147,133.7Z" transform="translate(0 0)"/><path class="cls-2" d="M66.9,173.8c1,4.1,1,8.1,5.1,11.3,10.5,8.1,21.4,8.4,33.4,4.2,5.9-2.1,9.9-5.1,10.7-11.5,5.1-2,9.3,1.1,13.8,2.6,2.7.9,5.2,2.5,5.2,5.9s-2.5,4.9-5.1,6.1c-6.1,2.9-12.7,3.9-19.3,4.9s-13.2.5-19.7,1.6H44c-1.8-1.1-3.9-.4-5.8-.5-10.6-.5-21.1-1.2-31.1-4.8-3-1.1-5.8-2.4-7.1-5.7v-3c4.2-6.8,11.4-6.9,18.2-8,2.5,4.6,6.5,6.2,11.5,6.1a60.21,60.21,0,0,1,10.4.1c8.3,1.2,13-2.8,15.7-10.1C59.6,172.4,63.4,171.7,66.9,173.8Z" transform="translate(0 0)"/><path class="cls-3" d="M103.6,48.8c-.7,10.1-.4,20.2-1.7,30.4-1.6,12-3.9,23.7-8.6,34.7-2.6,5.9-6.1,12.4-12.8,13.6-11.7,2.1-23.2,5.1-35.6,3.2-14.3-2.2-20.4-6.9-24.1-21.1C19,102.8,18.5,95.9,18.1,89c-.4-3.6,0-5.8,4.8-4a97.93,97.93,0,0,0,13.9,3.6c11,2.3,22.1,3.7,32.7-1.7,4.4-2.2,8.4-4.7,11.2-9.4,6.4-10.7,6.3-22.3,5.1-33.9C85.2,37.5,81,33,75,31.1c-3.6-1.1-7.5-1.5-11.2-2.3-8.7-1.7-17.6-1-26.4-1-1.3,0-3,.2-3.6-1.1s1.1-2.2,1.9-3.1c7.7-8.2,17.3-12,28.5-11.9a78.48,78.48,0,0,0,11.9-.4c10.4-1.4,17.2,4.1,23.1,11.5C100.7,31.5,104.2,39.7,103.6,48.8Z" transform="translate(0 0)"/><path class="cls-4" d="M104.5,36.1a172.16,172.16,0,0,1,5.4,41.7c.4,32.6.1,65.1-4,97.5-.2,1.6-.5,2.8-2.2,3.5-4.1,1.8-8.4,3.2-13,3-8.8-.6-13.9-5.9-13.6-14.5a141.72,141.72,0,0,0-.9-18.4c-.3-2.9-1.9-4.1-4.3-4.7a16.52,16.52,0,0,0-7,0,91.4,91.4,0,0,1-17.3,1.7,120.2,120.2,0,0,1-15.9-1.1c3.2,3.3,5.7,5.8,8.7,6.6,7.3,1.9,7.3,7.6,7.5,13.1.3,7.8-2.6,10.4-10.3,10.2-2-.1-4-.4-5.9-.6-6.8-.7-7.7-1.8-7.9-8.7-.1-4.1.8-8.4-.4-12.4-6-21-8.2-42.3-5.5-64,1.1.8.9,2,1,3.2A104.15,104.15,0,0,0,23.8,115a19.3,19.3,0,0,0,11.8,12.5c5.6,2.1,11.4,1.6,17.1,2.4,7.3,1.1,14.1-2.8,21.1-2.6,9.2.2,13.5-5.7,17.1-11.9,5.1-8.9,7.2-19.2,8.7-29.3a220.4,220.4,0,0,0,2.3-45.2,13.17,13.17,0,0,0-.8-4.4A31.59,31.59,0,0,1,99,22.9C101,27.3,103.3,31.6,104.5,36.1Z" transform="translate(0 0)"/><path class="cls-4" d="M128,74.5c2.4.6,4.6,1.5,7.1,1.4.2.4.7.8.7,1.3.9,17.9,3.3,35.7.6,53.7-.9,5.9-3.1,9.1-7.9,11.4-6.2,2.9-9.8.6-9.4-6,.2-3.5.8-6.9.8-10.4.1-17,.2-33.9.2-50.9C122.7,72.9,125.4,73.7,128,74.5Z" transform="translate(0 0)"/><path class="cls-5" d="M20.9,60.4c8.4,1,16.8,2.2,25.2,2.2,12.8.1,18-3.8,21.6-16,.6-2,.9-4.3,3.1-5.4,6.3,5,8,20.4,2.5,26.8-4.3,5-9.7,9.2-16.4,10.7-13.6,3.1-26.4-.2-38.6-6.1C11.2,69.2,8.2,62.3,9.9,55.9,13.6,57.3,16.8,59.9,20.9,60.4Z" transform="translate(0 0)"/><path class="cls-6" d="M18.9,43.4a46.1,46.1,0,0,1,21.6-6.5c10.4-.8,20.3,2.2,30.3,4.3-.8,2.5-1.6,5-2.3,7.6-2.9,10.3-9.2,15-19.9,15.1A208.75,208.75,0,0,1,21.3,62c-4.3-.5-8.9-1.5-11.4-6C10.8,50.2,14.3,46.3,18.9,43.4Z" transform="translate(0 0)"/><path class="cls-3" d="M119.3,65.9c-.1-1.3-.3-2.5,1.5-3.1,6.9-2.2,12.3.9,13.7,8.1.3,1.6.5,3.3.7,4.9-.6,2.9-2.5,1.5-3.8,1a28.82,28.82,0,0,0-11.2-2C119.8,71.9,119.5,68.9,119.3,65.9Z" transform="translate(0 0)"/><path class="cls-7" d="M23.8,52.9a4.17,4.17,0,0,1-4.4-2.6c-.8-1.8.4-3.2,1.4-4.5a7.63,7.63,0,0,1,4.1-2.7c7.3-1.9,14.7-3.9,22.4-2.7a5.2,5.2,0,0,1,4.8,5.4c0,2.7-.7,4.9-4,5.2-6.4.6-12.8,1.4-17.7,1.9C27.2,52.9,25.5,52.8,23.8,52.9Z" transform="translate(0 0)"/></g></svg>