<svg id="Layer_1" data-name="Layer 1" xmlns="http://www.w3.org/2000/svg" viewBox="0 0 148 198.94"><defs><style>.cls-1{fill:#010000;}.cls-2{fill:#373b3c;}.cls-2,.cls-3,.cls-4,.cls-5,.cls-6,.cls-7,.cls-8,.cls-9{fill-rule:evenodd;}.cls-3{fill:#c01701;}.cls-4{fill:#770a39;}.cls-5{fill:#760b39;}.cls-6{fill:#4a646e;}.cls-7{fill:#98c7dc;}.cls-8{fill:#bd1804;}.cls-9{fill:#fbfdfc;}</style></defs><title>Us</title><g id="_7rZVjN" data-name="7rZVjN"><path class="cls-1" d="M188.52,149.76c-1.47,12.64-10.44,22.22-22.66,20.66-3.84-.49-5.54,1.72-5.63,5.23-.16,6.14-1.28,12.2-1.38,18.33-.53,4.55-2.45,8.57-6.55,10.57-7.71,3.75-15.91,5.72-24.62,4.68a23.26,23.26,0,0,1-20.57-19c-1.31-4.52-.84-9.15-1-13.74-.06-1.65.61-4.12-2.07-4.25s-3.06,2.1-3.05,4.18a32.83,32.83,0,0,1-2.49,13c-3.86,9.28-6.42,11-16.5,11-3.49,0-7-.06-10.45,0-5.59.1-10-1.86-12.94-6.8-3.31-4.79-4.63-10.25-5.32-15.9-1-8.73-2.67-17.36-4-26-2.3-14.76-5-29.46-1.49-44.47.87-3.76,1.55-8.2-.94-11.61A30.22,30.22,0,0,1,41.52,83V71A31.7,31.7,0,0,1,54,49.62,10,10,0,0,0,57,45.15C63.64,28.69,77.11,20.64,93.4,17.21c10.24-2.16,20.93-.64,31.41-.65,11,0,19,6.25,24.58,14.75A65.77,65.77,0,0,1,159,58.44c1.18,8.57,1.28,8.3,8.66,8.54a29.74,29.74,0,0,1,3.42.72c12.42,1.94,17.68,9,17.45,22a245.93,245.93,0,0,0,1,26.31v25C188.54,143.84,188.87,146.84,188.52,149.76Z" transform="translate(-41.52 -16.05)"/><path class="cls-2" d="M108.46,189.89c1,4.07,1,8.15,5.05,11.32,10.49,8.13,21.4,8.39,33.38,4.17,5.9-2.07,9.85-5.09,10.67-11.47,5.11-2,9.31,1.14,13.76,2.58,2.72.89,5.2,2.47,5.24,5.91s-2.47,4.9-5.07,6.11c-6.09,2.85-12.68,3.88-19.25,4.9s-13.19.51-19.72,1.58h-47c-1.85-1.06-3.87-.4-5.8-.49-10.55-.54-21.06-1.24-31.13-4.84-3-1.08-5.8-2.42-7.07-5.67v-3c4.24-6.77,11.44-6.87,18.16-8,2.51,4.56,6.5,6.21,11.53,6.06a61.28,61.28,0,0,1,10.41.08c8.35,1.2,13-2.81,15.73-10.14C101.12,188.49,104.91,187.74,108.46,189.89Z" transform="translate(-41.52 -16.05)"/><path class="cls-3" d="M145.09,64.85c-.67,10.11-.43,20.2-1.74,30.36-1.55,12-3.86,23.67-8.64,34.7-2.57,5.91-6.13,12.43-12.84,13.65-11.68,2.11-23.25,5.13-35.58,3.2-14.33-2.24-20.39-6.93-24.1-21.13-1.78-6.81-2.3-13.66-2.65-20.59-.37-3.64.05-5.78,4.75-4a98.13,98.13,0,0,0,13.95,3.61c11,2.32,22.05,3.66,32.66-1.65,4.42-2.21,8.4-4.72,11.16-9.38,6.37-10.71,6.27-22.27,5.14-33.86-.6-6.12-4.75-10.62-10.8-12.53-3.62-1.14-7.47-1.52-11.22-2.26-8.74-1.72-17.56-1-26.36-1-1.3,0-3,.22-3.61-1.13s1.07-2.23,1.92-3.14c7.73-8.2,17.27-12,28.52-11.87a80.7,80.7,0,0,0,11.95-.43C128,26,134.78,31.51,140.69,38.92,142.23,47.55,145.71,55.74,145.09,64.85Z" transform="translate(-41.52 -16.05)"/><path class="cls-4" d="M146,52.18a172.31,172.31,0,0,1,5.44,41.66c.37,32.6.15,65.14-4,97.54-.21,1.61-.52,2.82-2.16,3.54-4.15,1.83-8.37,3.24-13,3-8.77-.55-13.9-5.91-13.63-14.53a126.87,126.87,0,0,0-.9-18.38c-.34-2.89-1.9-4.13-4.29-4.74a15.68,15.68,0,0,0-7,0A88,88,0,0,1,89.18,162a118.8,118.8,0,0,1-15.93-1.12c3.19,3.32,5.71,5.84,8.73,6.64,7.25,1.91,7.28,7.63,7.49,13.06.31,7.77-2.61,10.45-10.28,10.22-2-.06-4-.44-5.93-.63-6.76-.66-7.73-1.75-7.89-8.73-.09-4.14.8-8.35-.36-12.43-6-21-8.21-42.26-5.47-64,1.08.83.87,2,1,3.2A103.68,103.68,0,0,0,65.41,131c2,5.95,5.73,10.14,11.82,12.47,5.6,2.13,11.42,1.58,17.11,2.45,7.27,1.11,14.11-2.82,21.08-2.64,9.22.24,13.51-5.74,17.06-11.87,5.15-8.89,7.18-19.24,8.73-29.29a224.48,224.48,0,0,0,2.32-45.18,14.77,14.77,0,0,0-.75-4.39,32,32,0,0,1-2.09-13.63C142.49,43.33,144.8,47.61,146,52.18Z" transform="translate(-41.52 -16.05)"/><path class="cls-5" d="M169.56,90.52c2.35.62,4.62,1.54,7.12,1.39.23.43.66.85.68,1.29.92,17.87,3.28,35.65.55,53.65-.88,5.85-3.12,9.11-7.9,11.35-6.17,2.89-9.75.6-9.41-6,.18-3.47.78-6.94.81-10.41.15-17,.17-33.94.23-50.91C164.19,89,166.91,89.8,169.56,90.52Z" transform="translate(-41.52 -16.05)"/><path class="cls-6" d="M62.4,76.42c8.38,1,16.75,2.15,25.21,2.19,12.83.07,18-3.81,21.6-16,.61-2,.92-4.28,3.13-5.4,6.27,5,8,20.42,2.53,26.79-4.35,5.08-9.7,9.22-16.45,10.77-13.64,3.13-26.44-.17-38.6-6.07-7.09-3.44-10.07-10.31-8.37-16.73C55.11,73.4,58.31,75.93,62.4,76.42Z" transform="translate(-41.52 -16.05)"/><path class="cls-7" d="M60.43,59.44c6.55-4.13,14-6,21.58-6.54,10.37-.77,20.31,2.21,30.33,4.28-.78,2.53-1.61,5-2.33,7.6-2.92,10.33-9.18,15-19.88,15.12A210.76,210.76,0,0,1,62.85,78c-4.31-.52-8.94-1.51-11.4-6C52.35,66.27,55.84,62.34,60.43,59.44Z" transform="translate(-41.52 -16.05)"/><path class="cls-8" d="M160.82,82c-.11-1.29-.34-2.53,1.49-3.12,6.94-2.21,12.34.91,13.68,8.09.3,1.62.46,3.27.68,4.9-.6,2.91-2.53,1.46-3.83,1a29.27,29.27,0,0,0-11.2-2C161.36,88,161.06,85,160.82,82Z" transform="translate(-41.52 -16.05)"/><path class="cls-9" d="M65.36,69A4.11,4.11,0,0,1,61,66.44c-.79-1.77.36-3.18,1.36-4.52a7.47,7.47,0,0,1,4.09-2.73c7.34-1.94,14.73-3.94,22.42-2.7a5.2,5.2,0,0,1,4.77,5.41c0,2.68-.7,4.86-4,5.17-6.4.58-12.78,1.37-17.71,1.92C68.68,69,67,68.89,65.36,69Z" transform="translate(-41.52 -16.05)"/></g></svg>